<svg width="64" height="64" viewBox="0 0 64 64" fill="none" xmlns="http://www.w3.org/2000/svg">
<path d="M10.4957 31.2046L41.7964 24.5514L46.7485 28.6105L51.5305 51.1079L15.339 58.8007L11.1808 39.2377L5.80099 40.3812L10.4957 31.2046Z" fill="#FFDC2C"/>
<path d="M13.7368 27.4484L48.9503 19.9636M28.8396 50.4029L26.8833 50.8187M34.2194 49.2594L54.2714 44.9972L50.4058 26.8108M22.9707 51.6504L19.0581 52.482L15.1925 34.2956" stroke="black" stroke-width="2" stroke-linecap="round" stroke-linejoin="round"/>
<path d="M30.8505 11.543L30.0188 7.63041L12.4146 11.3723L15.7411 27.0227" stroke="black" stroke-width="2" stroke-linecap="round" stroke-linejoin="round"/>
<path d="M46.061 20.578L43.774 9.81833L28.126 13.1444L29.1655 18.0351" stroke="black" stroke-width="2" stroke-linecap="round" stroke-linejoin="round"/>
<path d="M13.7844 27.4384L9.37091 35.5329L36.759 29.7114" stroke="black" stroke-width="2" stroke-linecap="round" stroke-linejoin="round"/>
<path d="M48.9978 19.9536L56.3221 25.5532L47.0297 27.5284" stroke="black" stroke-width="2" stroke-linecap="round" stroke-linejoin="round"/>
<path d="M40.4023 22.803L44.1448 40.4096" stroke="black" stroke-width="2" stroke-linecap="round" stroke-linejoin="round"/>
<path d="M22.1934 9.2937L25.5199 24.9441" stroke="black" stroke-width="2" stroke-linecap="round" stroke-linejoin="round"/>
<path d="M37.9053 11.0658L39.3607 17.9128" stroke="black" stroke-width="2" stroke-linecap="round" stroke-linejoin="round"/>
<path d="M29.9976 21.9476L30.4134 23.9039" stroke="black" stroke-width="2" stroke-linecap="round" stroke-linejoin="round"/>
<path d="M36.7591 29.7115L40.7875 22.21" stroke="black" stroke-width="2" stroke-linecap="round" stroke-linejoin="round"/>
<path d="M47.0296 27.5284L40.2984 22.3139" stroke="black" stroke-width="2" stroke-linecap="round" stroke-linejoin="round"/>
</svg>
