<svg id="ea598d79-8dd3-4429-b270-13b822843139" data-name="Layer 1" xmlns="http://www.w3.org/2000/svg" width="747.61961" height="526" viewBox="0 0 747.61961 526"><path d="M835.62727,535.1876a9.37694,9.37694,0,0,0-3.0996-14.04039l1.85337-21.34769-12.69824-4.29036L819.4889,525.693a9.42779,9.42779,0,0,0,16.13837,9.49461Z" transform="translate(-226.19019 -187)" fill="#ffb8b8"/><polygon points="672.805 514.162 661.373 514.161 655.936 470.065 672.809 470.066 672.805 514.162" fill="#ffb8b8"/><path d="M653.20671,510.894h22.04781a0,0,0,0,1,0,0V524.776a0,0,0,0,1,0,0H639.32478a0,0,0,0,1,0,0v0A13.88193,13.88193,0,0,1,653.20671,510.894Z" fill="#2f2e41"/><polygon points="646.855 484.902 635.753 487.63 619.947 446.107 636.332 442.08 646.855 484.902" fill="#ffb8b8"/><path d="M854.77175,672.23195h22.04781a0,0,0,0,1,0,0v13.88195a0,0,0,0,1,0,0H840.88982a0,0,0,0,1,0,0v0A13.88193,13.88193,0,0,1,854.77175,672.23195Z" transform="translate(-363.44621 37.56243) rotate(-13.80529)" fill="#2f2e41"/><path d="M885.61516,687.104a4.2101,4.2101,0,0,1-4.19653-3.77929L868.26311,560.77148l-11.44726,37.47559,16.21338,58.5332a4.2251,4.2251,0,0,1-2.50537,5.05616l-12.88965,5.15625a4.23,4.23,0,0,1-5.56543-2.53565l-19.87061-57.00928a51.61168,51.61168,0,0,1-2.8352-19.395l2.77343-61.52343,73.04273,3.09277-1.14038,152.21484a4.25422,4.25422,0,0,1-3.91211,4.186l-14.18457,1.06885Q885.77764,687.10425,885.61516,687.104Z" transform="translate(-226.19019 -187)" fill="#2f2e41"/><circle cx="647.32766" cy="178.81309" r="24.56103" fill="#ffb8b8"/><path d="M891.57952,533.62451c-6.468,0-14.5044-.5293-22.81714-1.07617-11.35962-.74756-23.106-1.52051-31.87476-1.0127a6.96638,6.96638,0,0,1-6.23168-2.71386c-9.03931-11.57373,4.90307-56.70752,5.501-58.623l11.34644-50.46826.48779.10986-.48779-.10986c2.49585-11.09961,10.47094-19.2876,20.813-21.36817,9.68017-1.94433,19.043,1.93116,25.04785,10.375q.4779.67164.95532,1.37891c19.552,28.95654,8.49341,100.896,7.7522,105.53906,1.03271,1.23682,6.61792,8.23194,5.08252,13.09082-.62452,1.97657-2.3208,3.32373-5.04224,4.00391A47.00681,47.00681,0,0,1,891.57952,533.62451Z" transform="translate(-226.19019 -187)" fill="#9ac348"/><path d="M837.28411,533.64746c-2.22461,0-5.22559-.8208-9.27246-2.50488-1.739-.72363-7.031-2.92529-.60645-59.07178,3.15576-27.58008,7.67652-54.96777,7.72193-55.24121l.04345-.26367.24366-.11035c.11645-.05274,11.66186-5.34522,13.66967-12.146q.10437-.353.23389-.68457a6.244,6.244,0,0,1,7.75391-3.80811,6.56063,6.56063,0,0,1,4.94214,7.4878,46.024,46.024,0,0,1-3.99073,12.7915c-5.43286,11.21-9.11352,40.92774-9.15014,41.22656-.20752,2.53809-5.13843,62.67188-6.08838,67.23536-.33179,1.59375-.94214,3.54443-2.7334,4.49023A5.84185,5.84185,0,0,1,837.28411,533.64746Z" transform="translate(-226.19019 -187)" fill="#2f2e41"/><path d="M864.11541,531.34277a2.01837,2.01837,0,0,1-1.23877-.42529c-7.22559-5.49072,4.46826-72.05127,11.40454-95.01611,1.38892-4.59815,2.62549-8.53662,3.676-11.70606h0a89.26182,89.26182,0,0,0,3.98926-17.50586c.38159-3.22558,1.21143-5.06836,2.53711-5.63281.9209-.39307,2.00464-.12646,3.21973.79346,6.40674-.31641,12.63183,2.30176,18.40185,5.18115l5.19165,2.59033L917.123,512.77051c-.16455,6.58349-13.14112,11.23047-18.804,11.52734-9.08887.47656-25.41016,1.95654-32.6001,6.50879A3.006,3.006,0,0,1,864.11541,531.34277Z" transform="translate(-226.19019 -187)" fill="#2f2e41"/><path d="M831.65862,511.98926c-.08618,0-.17212-.00244-.259-.00781l-11.76758-.72413a4.22923,4.22923,0,0,1-3.92261-4.853l5.325-35.27881,10.02442-49.49756a8.8792,8.8792,0,0,1,11.36157-6.70947h0a8.92781,8.92781,0,0,1,6.10767,9.87939l-7.96412,49.59668-4.7146,33.94727A4.25086,4.25086,0,0,1,831.65862,511.98926Z" transform="translate(-226.19019 -187)" fill="#2f2e41"/><path d="M871.86028,473.37413a9.377,9.377,0,0,1,14.22529-2.09316l19.295-9.32,8.52354,10.34416L886.471,485.08405a9.42779,9.42779,0,0,1-14.6107-11.70992Z" transform="translate(-226.19019 -187)" fill="#ffb8b8"/><path d="M898.6635,483.3833a4.23218,4.23218,0,0,1-4.11425-3.2417l-2.803-11.64941a4.21136,4.21136,0,0,1,1.94043-4.61914l16.90161-10.11573-8.63965-31.63378a10.81908,10.81908,0,0,1,.37915-6.80127,10.75315,10.75315,0,0,1,20.21362.6206l9.53882,29.12549a17.57551,17.57551,0,0,1-6.4209,19.773L901.141,482.58008A4.22422,4.22422,0,0,1,898.6635,483.3833Z" transform="translate(-226.19019 -187)" fill="#2f2e41"/><path d="M878.00469,389.77021a26.205,26.205,0,1,0-4.91018-51.82531c-5.40118-3.27952-11.6809-5.48627-17.97478-4.925s-12.51835,4.29789-14.87192,10.16208.17487,13.59411,6.02708,15.97731c3.75184,1.52786,7.98866.78691,11.99255.1708s8.37171-1.01817,11.85634,1.04773,5.05107,7.60549,1.93026,10.18836a10.73847,10.73847,0,0,0-3.0842,11.82027C870.5383,386.44274,874.8192,389.70139,878.00469,389.77021Z" transform="translate(-226.19019 -187)" fill="#2f2e41"/><path d="M716.06408,187H242.87049a16.69542,16.69542,0,0,0-16.6803,16.68029v50.91879a16.69542,16.69542,0,0,0,16.6803,16.6803H716.06408a16.69542,16.69542,0,0,0,16.6803-16.6803V203.68029A16.69542,16.69542,0,0,0,716.06408,187Zm14.92448,67.59908a14.94565,14.94565,0,0,1-14.92448,14.92448H242.87049A14.94564,14.94564,0,0,1,227.946,254.59908V203.68029a14.94564,14.94564,0,0,1,14.92447-14.92447H716.06408a14.94565,14.94565,0,0,1,14.92448,14.92447Z" transform="translate(-226.19019 -187)" fill="#3f3d56"/><path d="M716.06408,391.55308H242.87049a16.69928,16.69928,0,0,1-16.6803-16.6803V323.954a16.69927,16.69927,0,0,1,16.6803-16.68029H716.06408a16.69927,16.69927,0,0,1,16.6803,16.68029v50.91879A16.69928,16.69928,0,0,1,716.06408,391.55308ZM242.87049,309.02952A14.94122,14.94122,0,0,0,227.946,323.954v50.91879a14.94122,14.94122,0,0,0,14.92447,14.92447H716.06408a14.9413,14.9413,0,0,0,14.92448-14.92447V323.954a14.9413,14.9413,0,0,0-14.92448-14.92447Z" transform="translate(-226.19019 -187)" fill="#ccc"/><path d="M716.06408,511.82677H242.87049a16.69927,16.69927,0,0,1-16.6803-16.68029V444.22769a16.69928,16.69928,0,0,1,16.6803-16.6803H716.06408a16.69928,16.69928,0,0,1,16.6803,16.6803v50.91879A16.69927,16.69927,0,0,1,716.06408,511.82677ZM242.87049,429.30321A14.94123,14.94123,0,0,0,227.946,444.22769v50.91879A14.94122,14.94122,0,0,0,242.87049,510.071H716.06408a14.9413,14.9413,0,0,0,14.92448-14.92447V444.22769a14.94131,14.94131,0,0,0-14.92448-14.92448Z" transform="translate(-226.19019 -187)" fill="#ccc"/><path d="M306.80938,258.17188a29.03223,29.03223,0,1,1,29.032-29.03223A29.06519,29.06519,0,0,1,306.80938,258.17188Z" transform="translate(-226.19019 -187)" fill="#9ac348"/><path d="M673.19513,252.84326H363.29283a7.02328,7.02328,0,1,1,0-14.04656h309.9023a7.02328,7.02328,0,1,1,0,14.04656Z" transform="translate(-226.19019 -187)" fill="#ccc"/><path d="M572.23546,222.99432H363.29283a7.02329,7.02329,0,1,1,0-14.04657H572.23546a7.02328,7.02328,0,0,1,0,14.04657Z" transform="translate(-226.19019 -187)" fill="#ccc"/><path d="M306.80938,378.44531a29.032,29.032,0,1,1,29.032-29.03174A29.06476,29.06476,0,0,1,306.80938,378.44531Z" transform="translate(-226.19019 -187)" fill="#e6e6e6"/><path d="M673.19513,373.117H363.29283a7.02328,7.02328,0,1,1,0-14.04656h309.9023a7.02328,7.02328,0,1,1,0,14.04656Z" transform="translate(-226.19019 -187)" fill="#e6e6e6"/><path d="M572.23546,343.268H363.29283a7.02328,7.02328,0,1,1,0-14.04656H572.23546a7.02328,7.02328,0,0,1,0,14.04656Z" transform="translate(-226.19019 -187)" fill="#e6e6e6"/><path d="M306.80938,498.71924a29.03223,29.03223,0,1,1,29.032-29.03223A29.06519,29.06519,0,0,1,306.80938,498.71924Z" transform="translate(-226.19019 -187)" fill="#e6e6e6"/><path d="M673.19513,493.39066H363.29283a7.02329,7.02329,0,1,1,0-14.04657h309.9023a7.02329,7.02329,0,0,1,0,14.04657Z" transform="translate(-226.19019 -187)" fill="#e6e6e6"/><path d="M572.23546,463.54171H363.29283a7.02328,7.02328,0,1,1,0-14.04656H572.23546a7.02328,7.02328,0,0,1,0,14.04656Z" transform="translate(-226.19019 -187)" fill="#e6e6e6"/><path id="a0cfb668-db22-436f-bdef-92b50d362156" data-name="Path 395" d="M305.32654,239.35175a3.32083,3.32083,0,0,1-1.99781-.664l-.03574-.0268-7.52475-5.7562a3.34395,3.34395,0,1,1,4.06905-5.30762l4.87393,3.73756,11.51737-15.02568a3.34253,3.34253,0,0,1,4.68639-.619l.001.00073-.07148.09925.07342-.09925a3.34656,3.34656,0,0,1,.61828,4.68733l-13.54694,17.66561a3.34455,3.34455,0,0,1-2.65976,1.30407Z" transform="translate(-226.19019 -187)" fill="#fff"/><path d="M972.80981,713h-198a1,1,0,0,1,0-2h198a1,1,0,0,1,0,2Z" transform="translate(-226.19019 -187)" fill="#ccc"/></svg>