<?xml version="1.0"?>
<svg xmlns="http://www.w3.org/2000/svg" xmlns:xlink="http://www.w3.org/1999/xlink" version="1.1" viewBox="38 40 114 110" width="64px" height="64px"><g fill="red" stroke="none" stroke-width="1" stroke-linecap="butt" stroke-linejoin="miter" stroke-miterlimit="10" stroke-dasharray="" stroke-dashoffset="0" font-family="none" font-weight="none" font-size="none" text-anchor="none" style="mix-blend-mode: normal"><path d="M0,192v-192h192v192z" fill="none"/><g id="Layer_1" fill="#9ac348"><g id="surface1"><path d="M91.23,43.71l-2.25,0.9l-40.59,15.3l-3.33,1.26l1.98,2.97l8.64,13.14v0.72l-1.71,1.26l-14.4,10.8l2.7,2.34l13.41,11.88v22.14l1.35,0.81l31.68,20.16l1.26,0.81l47.52,-20.79l1.71,-0.72v-20.25l4.14,-2.07l2.79,-1.44l-1.62,-2.61l-8.19,-13.68v-2.16l10.71,-11.43l2.61,-2.7l-3.33,-1.8l-25.74,-13.77l-1.35,-0.72l-1.35,0.72l-2.88,1.53l-15.03,-6.21l-0.99,-0.36l-1.08,0.36l-2.52,0.9l-2.88,-5.13zM88.62,50.82l1.26,2.25l-9.27,3.42l-1.89,0.72v5.49l-1.35,-0.81l-1.26,-0.81l-1.26,0.54l-17.28,6.66l-0.72,0.27l-2.97,-4.5zM98.79,55.86l14.49,6.03v7.47l-14.13,6.12l-14.67,-9.18v-5.13zM119.31,60.54l21.06,11.34l-4.05,4.32v-1.89l-1.71,-0.81l-14.4,-6.12l-1.17,-0.45v-6.21zM75.57,67.47l14.76,9.27l-14.22,5.58l-14.31,-9.54zM119.04,73.23l6.93,2.97l-12.69,6.12l-7.02,-3.69zM61.44,79.35l11.52,7.74v3.87l-11.52,-8.64zM130.56,80.34v5.13l-14.4,6.75v-4.95zM96,80.7v7.65l-16.83,7.2l-0.45,-0.36v-7.74zM101.76,82.77l8.64,4.59v5.85l-8.64,-4.68zM55.68,85.2l25.65,19.26l-10.8,5.4l-21.78,-19.44zM132.36,91.05l5.67,9.45l-35.19,17.64l-6.3,-10.35zM98.7,93.39l6.93,3.78l-15.03,7.02l-6.21,-4.68zM86.46,108.33l0.9,0.63v30.78l-25.92,-16.47v-13.86l6.75,6.03l1.44,1.26l1.71,-0.81zM133.44,109.32v13.59l-40.32,17.64v-27.54l6.21,10.35l1.35,2.34z"/></g></g></g></svg>
